# xmcd CD database file
#
# Track frame offsets:
#	150
#	18110
#	29509
#	46221
#	62523
#	78529
#	93984
#	106789
#	119379
#	131476
#	151190
#	170413
#	190960
#	206601
#	226822
#	243032
#
# Disc length: 3502 seconds
#
# Revision: 1
# Processed by: cddbd v1.5.1PL0 Copyright (c) Steve Scherf et al.
# Submitted via: CDex 1.51
#
DISCID=be0dac10
DTITLE=Alan and DesLauriers - Carousel Wind
DYEAR=2005
DGENRE=New Age
TTITLE0=Carousel Wind
TTITLE1=Sweeping the Fog Away
TTITLE2=Handful of Stars
TTITLE3=Beyond Our Galaxy
TTITLE4=Walls
TTITLE5=Ball of White and Blue
TTITLE6=Imaginary Mountain
TTITLE7=Golden Footprints
TTITLE8=Tiger Swallowtail
TTITLE9=Masterpiece of Heart
TTITLE10=Messenger's Lament
TTITLE11=Fill the World with Song
TTITLE12=Sunflowers
TTITLE13=Blue Whale Blues
TTITLE14=A Miracle America
TTITLE15=One Too Many Rungs
EXTD=YEAR: 2005
EXTT0=
EXTT1=
EXTT2=
EXTT3=
EXTT4=
EXTT5=
EXTT6=
EXTT7=
EXTT8=
EXTT9=
EXTT10=
EXTT11=
EXTT12=
EXTT13=
EXTT14=
EXTT15=
PLAYORDER=
